<svg width="80" height="29" viewBox="0 0 80 29" fill="none" xmlns="http://www.w3.org/2000/svg">
<path d="M1.55002 7.10003C0.950022 9.40003 0.350022 11.65 0.200022 12.1C-0.0499786 12.9 0.450022 13 5.45003 13C10.65 13 11 12.95 11 12C11 11.1 10.65 11 7.00003 11C2.50002 11 2.55002 11.1 3.75002 7.20003C4.75003 3.95002 4.70003 3.00002 3.60002 3.00002C2.85002 3.00002 2.45002 3.85002 1.55002 7.10003Z" fill="white"/>
<path d="M0 17C0 17.9 0.35 18 3.95 18H7.85001L7.1 21.2C6.35 24.3 6.5 26 7.45001 26C7.95001 26 9.65001 21 10.3 17.6L10.65 16H5.3C0.35 16 0 16.05 0 17Z" fill="white"/>
<path d="M28.0371 19H20.2832V18.7168C20.5176 18.7168 20.7259 18.7038 20.9082 18.6777C21.0905 18.6452 21.2402 18.5866 21.3574 18.502C21.4811 18.4108 21.5755 18.2839 21.6406 18.1211C21.7057 17.9583 21.7383 17.7435 21.7383 17.4766V10.543C21.7383 10.2826 21.7057 10.071 21.6406 9.9082C21.5755 9.74544 21.4811 9.62174 21.3574 9.53711C21.2402 9.44596 21.0905 9.38411 20.9082 9.35156C20.7259 9.31901 20.5176 9.30273 20.2832 9.30273V9.01953H24.6191V9.30273C24.3783 9.30273 24.1667 9.31901 23.9844 9.35156C23.8021 9.38411 23.6491 9.44596 23.5254 9.53711C23.4017 9.62174 23.3073 9.74544 23.2422 9.9082C23.1771 10.071 23.1445 10.2826 23.1445 10.543V17.1152C23.1445 17.3626 23.1641 17.5677 23.2031 17.7305C23.2422 17.8867 23.3073 18.0137 23.3984 18.1113C23.4961 18.2025 23.6263 18.2676 23.7891 18.3066C23.9518 18.3392 24.1569 18.3555 24.4043 18.3555H25.4004C25.8822 18.3555 26.2858 18.3294 26.6113 18.2773C26.9368 18.2188 27.2168 18.1146 27.4512 17.9648C27.6921 17.8086 27.9036 17.5938 28.0859 17.3203C28.2682 17.0404 28.4538 16.679 28.6426 16.2363L28.8965 16.2754L28.0371 19ZM32.1582 9.95703C32.1582 10.1654 32.0866 10.3444 31.9434 10.4941C31.8001 10.6439 31.6243 10.7188 31.416 10.7188C31.2077 10.7188 31.0286 10.6471 30.8789 10.5039C30.7357 10.3607 30.6641 10.1784 30.6641 9.95703C30.6641 9.7487 30.7357 9.57617 30.8789 9.43945C31.0286 9.29622 31.2077 9.22461 31.416 9.22461C31.6178 9.22461 31.7904 9.29622 31.9336 9.43945C32.0833 9.58268 32.1582 9.75521 32.1582 9.95703ZM29.7559 19V18.7168C29.9772 18.7168 30.1562 18.7005 30.293 18.668C30.4297 18.6354 30.5339 18.5768 30.6055 18.4922C30.6836 18.4076 30.7357 18.2969 30.7617 18.1602C30.7878 18.0169 30.8008 17.8379 30.8008 17.623V14.0195C30.8008 13.9349 30.7943 13.8372 30.7812 13.7266C30.7747 13.6094 30.7552 13.4987 30.7227 13.3945C30.6901 13.2904 30.638 13.2025 30.5664 13.1309C30.4948 13.0592 30.4004 13.0234 30.2832 13.0234C30.1986 13.0234 30.1107 13.0365 30.0195 13.0625C29.9349 13.082 29.847 13.1081 29.7559 13.1406L29.6582 12.877L31.6992 12.0566H32.0215V17.623C32.0215 17.8379 32.0345 18.0169 32.0605 18.1602C32.0866 18.2969 32.1354 18.4076 32.207 18.4922C32.2852 18.5768 32.3893 18.6354 32.5195 18.668C32.6562 18.7005 32.8353 18.7168 33.0566 18.7168V19H29.7559ZM40.6543 12.8574C40.6543 13.0007 40.6022 13.0983 40.498 13.1504C40.4004 13.2025 40.2799 13.2318 40.1367 13.2383C40 13.2448 39.8535 13.2415 39.6973 13.2285C39.5475 13.209 39.4206 13.1992 39.3164 13.1992C39.4596 13.388 39.5605 13.6029 39.6191 13.8438C39.6842 14.0781 39.7168 14.3092 39.7168 14.5371C39.7168 14.9147 39.6419 15.2467 39.4922 15.5332C39.349 15.8132 39.1536 16.0508 38.9062 16.2461C38.6589 16.4349 38.3757 16.5781 38.0566 16.6758C37.7376 16.7734 37.4056 16.8223 37.0605 16.8223C36.8913 16.8223 36.7188 16.8125 36.543 16.793C36.3737 16.7669 36.2044 16.7279 36.0352 16.6758C35.9049 16.7799 35.778 16.9004 35.6543 17.0371C35.5371 17.1738 35.4785 17.3268 35.4785 17.4961C35.4785 17.6458 35.5501 17.7533 35.6934 17.8184C35.8431 17.8835 36.0352 17.929 36.2695 17.9551C36.5104 17.9811 36.7839 17.9941 37.0898 17.9941C37.3958 17.9941 37.7083 18.0007 38.0273 18.0137C38.3464 18.0267 38.6589 18.056 38.9648 18.1016C39.2708 18.1471 39.541 18.2285 39.7754 18.3457C40.0163 18.4564 40.2083 18.6126 40.3516 18.8145C40.5013 19.0163 40.5762 19.2832 40.5762 19.6152C40.5762 19.9147 40.5176 20.1882 40.4004 20.4355C40.2832 20.6829 40.127 20.9043 39.9316 21.0996C39.7363 21.3014 39.5085 21.474 39.248 21.6172C38.9941 21.7604 38.7272 21.8809 38.4473 21.9785C38.1673 22.0762 37.8841 22.1478 37.5977 22.1934C37.3177 22.2389 37.0508 22.2617 36.7969 22.2617C36.6732 22.2617 36.5104 22.2487 36.3086 22.2227C36.1133 22.2031 35.9049 22.1673 35.6836 22.1152C35.4688 22.0697 35.2507 22.0078 35.0293 21.9297C34.8079 21.8581 34.6094 21.7702 34.4336 21.666C34.2578 21.5618 34.1146 21.4414 34.0039 21.3047C33.8932 21.1745 33.8379 21.0247 33.8379 20.8555C33.8379 20.7188 33.89 20.556 33.9941 20.3672C34.1048 20.1849 34.2318 20.0026 34.375 19.8203C34.5247 19.6445 34.6745 19.4753 34.8242 19.3125C34.9805 19.1562 35.1042 19.0326 35.1953 18.9414C35.1302 18.9023 35.0586 18.8535 34.9805 18.7949C34.9023 18.7363 34.8275 18.6712 34.7559 18.5996C34.6842 18.528 34.6224 18.4531 34.5703 18.375C34.5247 18.2904 34.502 18.2057 34.502 18.1211C34.502 17.9844 34.5443 17.8411 34.6289 17.6914C34.7135 17.5352 34.8177 17.3854 34.9414 17.2422C35.0651 17.099 35.1921 16.9655 35.3223 16.8418C35.459 16.7181 35.5762 16.6172 35.6738 16.5391C35.4785 16.4479 35.2995 16.3307 35.1367 16.1875C34.9805 16.0443 34.847 15.8848 34.7363 15.709C34.6257 15.5267 34.541 15.3346 34.4824 15.1328C34.4238 14.9245 34.3945 14.7129 34.3945 14.498C34.3945 14.1204 34.4661 13.7819 34.6094 13.4824C34.7591 13.1764 34.9577 12.9193 35.2051 12.7109C35.4525 12.5026 35.7357 12.3431 36.0547 12.2324C36.3802 12.1152 36.722 12.0566 37.0801 12.0566C37.2949 12.0566 37.5033 12.0859 37.7051 12.1445C37.9134 12.1966 38.1185 12.2552 38.3203 12.3203C38.5221 12.3854 38.724 12.4473 38.9258 12.5059C39.1276 12.5579 39.3327 12.584 39.541 12.584C39.6712 12.584 39.8014 12.5775 39.9316 12.5645C40.0618 12.5449 40.1921 12.5352 40.3223 12.5352C40.4525 12.5352 40.5404 12.5482 40.5859 12.5742C40.6315 12.6003 40.6543 12.6947 40.6543 12.8574ZM38.418 14.7422C38.418 14.5143 38.3952 14.2669 38.3496 14C38.3105 13.7266 38.2357 13.4727 38.125 13.2383C38.0143 13.0039 37.8646 12.8086 37.6758 12.6523C37.487 12.4961 37.2493 12.418 36.9629 12.418C36.7155 12.418 36.5072 12.4733 36.3379 12.584C36.1751 12.6882 36.0449 12.8249 35.9473 12.9941C35.8496 13.1569 35.778 13.3424 35.7324 13.5508C35.6934 13.7591 35.6738 13.9674 35.6738 14.1758C35.6738 14.4102 35.6934 14.6608 35.7324 14.9277C35.778 15.1947 35.8561 15.4421 35.9668 15.6699C36.084 15.8978 36.237 16.0866 36.4258 16.2363C36.6211 16.3861 36.8652 16.4609 37.1582 16.4609C37.4121 16.4609 37.6204 16.4121 37.7832 16.3145C37.946 16.2168 38.0729 16.0866 38.1641 15.9238C38.2617 15.7611 38.3268 15.5788 38.3594 15.377C38.3984 15.1686 38.418 14.957 38.418 14.7422ZM40.0391 19.8984C40.0391 19.8008 40.0163 19.7161 39.9707 19.6445C39.9316 19.5729 39.8763 19.5111 39.8047 19.459C39.7396 19.4134 39.6615 19.3743 39.5703 19.3418C39.4857 19.3092 39.401 19.2832 39.3164 19.2637C39.1276 19.2181 38.8704 19.1823 38.5449 19.1562C38.2194 19.1302 37.8743 19.1074 37.5098 19.0879C37.1517 19.0749 36.8001 19.0618 36.4551 19.0488C36.11 19.0358 35.8236 19.0195 35.5957 19C35.5306 19.0781 35.4557 19.166 35.3711 19.2637C35.293 19.3678 35.2181 19.4753 35.1465 19.5859C35.0749 19.7031 35.0163 19.8203 34.9707 19.9375C34.9251 20.0612 34.9023 20.1816 34.9023 20.2988C34.9023 20.4486 34.9512 20.5788 35.0488 20.6895C35.1465 20.8001 35.2702 20.8945 35.4199 20.9727C35.5762 21.0508 35.7487 21.1159 35.9375 21.168C36.1328 21.2201 36.3249 21.2591 36.5137 21.2852C36.7025 21.3177 36.8815 21.3372 37.0508 21.3438C37.2201 21.3568 37.3568 21.3633 37.4609 21.3633C37.6823 21.3633 37.9395 21.3405 38.2324 21.2949C38.5319 21.2559 38.8151 21.181 39.082 21.0703C39.349 20.9596 39.5736 20.8099 39.7559 20.6211C39.9447 20.4323 40.0391 20.1914 40.0391 19.8984ZM45.0781 19V18.7168C45.2995 18.7168 45.4785 18.7005 45.6152 18.668C45.7585 18.6354 45.8691 18.5801 45.9473 18.502C46.0319 18.4173 46.0872 18.3066 46.1133 18.1699C46.1458 18.0267 46.1621 17.8444 46.1621 17.623V14.9766C46.1621 14.7682 46.1589 14.5469 46.1523 14.3125C46.1458 14.0781 46.11 13.8633 46.0449 13.668C45.9798 13.4661 45.8724 13.3001 45.7227 13.1699C45.5729 13.0332 45.3581 12.9648 45.0781 12.9648C44.9089 12.9648 44.7461 12.9941 44.5898 13.0527C44.4336 13.1048 44.2839 13.1764 44.1406 13.2676C43.9974 13.3522 43.8639 13.4531 43.7402 13.5703C43.6165 13.6875 43.5026 13.8047 43.3984 13.9219V17.623C43.3984 17.8444 43.4082 18.0267 43.4277 18.1699C43.4538 18.3132 43.5059 18.4271 43.584 18.5117C43.6621 18.5898 43.7695 18.6452 43.9062 18.6777C44.0495 18.7038 44.2383 18.7168 44.4727 18.7168V19H41.1328V18.7168C41.3477 18.7168 41.5234 18.7005 41.6602 18.668C41.7969 18.6289 41.9043 18.5671 41.9824 18.4824C42.0605 18.3913 42.1126 18.2773 42.1387 18.1406C42.1647 17.9974 42.1777 17.8249 42.1777 17.623V10.5039C42.1777 10.4258 42.1712 10.3281 42.1582 10.2109C42.1517 10.0938 42.1322 9.98307 42.0996 9.87891C42.0671 9.76823 42.0182 9.67383 41.9531 9.5957C41.888 9.51758 41.7969 9.47852 41.6797 9.47852C41.5885 9.47852 41.4974 9.49154 41.4062 9.51758C41.3151 9.53711 41.224 9.56315 41.1328 9.5957L41.0156 9.3418L43.0566 8.54102H43.3984V13.4629C43.5286 13.2676 43.6719 13.0853 43.8281 12.916C43.9844 12.7402 44.1536 12.5905 44.3359 12.4668C44.5247 12.3366 44.7266 12.2357 44.9414 12.1641C45.1628 12.0924 45.3939 12.0566 45.6348 12.0566C46.0645 12.0566 46.3965 12.1576 46.6309 12.3594C46.8717 12.5547 47.0475 12.8021 47.1582 13.1016C47.2754 13.401 47.3438 13.7298 47.3633 14.0879C47.3893 14.446 47.4023 14.7845 47.4023 15.1035V17.623C47.4023 17.8249 47.4121 17.9974 47.4316 18.1406C47.4577 18.2773 47.5065 18.3913 47.5781 18.4824C47.6497 18.5671 47.7507 18.6289 47.8809 18.668C48.0111 18.7005 48.1836 18.7168 48.3984 18.7168V19H45.0781ZM52.6758 17.7598C52.6237 17.9421 52.5456 18.1211 52.4414 18.2969C52.3372 18.4727 52.2103 18.6289 52.0605 18.7656C51.9173 18.9023 51.7546 19.013 51.5723 19.0977C51.3965 19.1823 51.2044 19.2246 50.9961 19.2246C50.7357 19.2246 50.5176 19.1725 50.3418 19.0684C50.1725 18.9707 50.0358 18.8405 49.9316 18.6777C49.8275 18.5085 49.7559 18.3164 49.7168 18.1016C49.6777 17.8867 49.6582 17.6654 49.6582 17.4375V12.7598H48.5938V12.5352C48.8477 12.4375 49.0788 12.2975 49.2871 12.1152C49.502 11.9329 49.694 11.7279 49.8633 11.5C50.0391 11.2656 50.1921 11.0215 50.3223 10.7676C50.459 10.5137 50.5762 10.2695 50.6738 10.0352H50.8984V12.2617H52.4805V12.7598H50.8984V17.2617C50.8984 17.3724 50.9049 17.4928 50.918 17.623C50.9375 17.7533 50.9701 17.877 51.0156 17.9941C51.0612 18.1048 51.1263 18.1992 51.2109 18.2773C51.3021 18.349 51.416 18.3848 51.5527 18.3848C51.7741 18.3848 51.9499 18.3294 52.0801 18.2188C52.2103 18.1016 52.3145 17.9486 52.3926 17.7598H52.6758ZM56.8164 19V18.7168C57.0703 18.7168 57.2689 18.6973 57.4121 18.6582C57.5618 18.6191 57.6725 18.554 57.7441 18.4629C57.8223 18.3652 57.8711 18.2383 57.8906 18.082C57.9102 17.9193 57.9199 17.7174 57.9199 17.4766V14.7227C57.9199 14.5339 57.9102 14.3353 57.8906 14.127C57.8776 13.9186 57.8353 13.7298 57.7637 13.5605C57.6921 13.3848 57.5846 13.2415 57.4414 13.1309C57.2982 13.0202 57.1029 12.9648 56.8555 12.9648C56.6797 12.9648 56.5104 12.9941 56.3477 13.0527C56.1849 13.1048 56.0286 13.1764 55.8789 13.2676C55.7357 13.3522 55.599 13.4531 55.4688 13.5703C55.3451 13.6875 55.2279 13.8047 55.1172 13.9219V17.4766C55.1172 17.7109 55.127 17.9095 55.1465 18.0723C55.166 18.2285 55.2116 18.3555 55.2832 18.4531C55.3548 18.5508 55.4622 18.6191 55.6055 18.6582C55.7552 18.6973 55.957 18.7168 56.2109 18.7168V19H52.8516V18.7168C53.099 18.7168 53.291 18.694 53.4277 18.6484C53.5645 18.5964 53.6654 18.5215 53.7305 18.4238C53.8021 18.3197 53.8444 18.1895 53.8574 18.0332C53.8704 17.877 53.877 17.6914 53.877 17.4766V14.957C53.877 14.8529 53.8802 14.6934 53.8867 14.4785C53.8932 14.2637 53.8835 14.0488 53.8574 13.834C53.8379 13.6191 53.7891 13.4303 53.7109 13.2676C53.6393 13.1048 53.5221 13.0234 53.3594 13.0234C53.2747 13.0234 53.1901 13.0365 53.1055 13.0625C53.0208 13.082 52.9362 13.1081 52.8516 13.1406L52.7539 12.877L54.8145 12.0566H55.1172V13.4824C55.2539 13.3132 55.4036 13.1439 55.5664 12.9746C55.7357 12.8053 55.9147 12.6523 56.1035 12.5156C56.2923 12.3789 56.4941 12.2682 56.709 12.1836C56.9238 12.099 57.1452 12.0566 57.373 12.0566C57.7376 12.0566 58.0339 12.1315 58.2617 12.2812C58.4961 12.431 58.6784 12.6296 58.8086 12.877C58.9388 13.1178 59.0267 13.388 59.0723 13.6875C59.1178 13.987 59.1406 14.2897 59.1406 14.5957V17.4766C59.1406 17.6914 59.1504 17.877 59.1699 18.0332C59.1895 18.1895 59.2318 18.3197 59.2969 18.4238C59.3685 18.5215 59.4759 18.5964 59.6191 18.6484C59.7624 18.694 59.9544 18.7168 60.1953 18.7168V19H56.8164ZM63.1738 9.95703C63.1738 10.1654 63.1022 10.3444 62.959 10.4941C62.8158 10.6439 62.64 10.7188 62.4316 10.7188C62.2233 10.7188 62.0443 10.6471 61.8945 10.5039C61.7513 10.3607 61.6797 10.1784 61.6797 9.95703C61.6797 9.7487 61.7513 9.57617 61.8945 9.43945C62.0443 9.29622 62.2233 9.22461 62.4316 9.22461C62.6335 9.22461 62.806 9.29622 62.9492 9.43945C63.099 9.58268 63.1738 9.75521 63.1738 9.95703ZM60.7715 19V18.7168C60.9928 18.7168 61.1719 18.7005 61.3086 18.668C61.4453 18.6354 61.5495 18.5768 61.6211 18.4922C61.6992 18.4076 61.7513 18.2969 61.7773 18.1602C61.8034 18.0169 61.8164 17.8379 61.8164 17.623V14.0195C61.8164 13.9349 61.8099 13.8372 61.7969 13.7266C61.7904 13.6094 61.7708 13.4987 61.7383 13.3945C61.7057 13.2904 61.6536 13.2025 61.582 13.1309C61.5104 13.0592 61.416 13.0234 61.2988 13.0234C61.2142 13.0234 61.1263 13.0365 61.0352 13.0625C60.9505 13.082 60.8626 13.1081 60.7715 13.1406L60.6738 12.877L62.7148 12.0566H63.0371V17.623C63.0371 17.8379 63.0501 18.0169 63.0762 18.1602C63.1022 18.2969 63.151 18.4076 63.2227 18.4922C63.3008 18.5768 63.4049 18.6354 63.5352 18.668C63.6719 18.7005 63.8509 18.7168 64.0723 18.7168V19H60.7715ZM68.5547 19V18.7168C68.8086 18.7168 69.0072 18.6973 69.1504 18.6582C69.3001 18.6191 69.4108 18.554 69.4824 18.4629C69.5605 18.3652 69.6094 18.2383 69.6289 18.082C69.6484 17.9193 69.6582 17.7174 69.6582 17.4766V14.7227C69.6582 14.5339 69.6484 14.3353 69.6289 14.127C69.6159 13.9186 69.5736 13.7298 69.502 13.5605C69.4303 13.3848 69.3229 13.2415 69.1797 13.1309C69.0365 13.0202 68.8411 12.9648 68.5938 12.9648C68.418 12.9648 68.2487 12.9941 68.0859 13.0527C67.9232 13.1048 67.7669 13.1764 67.6172 13.2676C67.474 13.3522 67.3372 13.4531 67.207 13.5703C67.0833 13.6875 66.9661 13.8047 66.8555 13.9219V17.4766C66.8555 17.7109 66.8652 17.9095 66.8848 18.0723C66.9043 18.2285 66.9499 18.3555 67.0215 18.4531C67.0931 18.5508 67.2005 18.6191 67.3438 18.6582C67.4935 18.6973 67.6953 18.7168 67.9492 18.7168V19H64.5898V18.7168C64.8372 18.7168 65.0293 18.694 65.166 18.6484C65.3027 18.5964 65.4036 18.5215 65.4688 18.4238C65.5404 18.3197 65.5827 18.1895 65.5957 18.0332C65.6087 17.877 65.6152 17.6914 65.6152 17.4766V14.957C65.6152 14.8529 65.6185 14.6934 65.625 14.4785C65.6315 14.2637 65.6217 14.0488 65.5957 13.834C65.5762 13.6191 65.5273 13.4303 65.4492 13.2676C65.3776 13.1048 65.2604 13.0234 65.0977 13.0234C65.013 13.0234 64.9284 13.0365 64.8438 13.0625C64.7591 13.082 64.6745 13.1081 64.5898 13.1406L64.4922 12.877L66.5527 12.0566H66.8555V13.4824C66.9922 13.3132 67.1419 13.1439 67.3047 12.9746C67.474 12.8053 67.653 12.6523 67.8418 12.5156C68.0306 12.3789 68.2324 12.2682 68.4473 12.1836C68.6621 12.099 68.8835 12.0566 69.1113 12.0566C69.4759 12.0566 69.7721 12.1315 70 12.2812C70.2344 12.431 70.4167 12.6296 70.5469 12.877C70.6771 13.1178 70.765 13.388 70.8105 13.6875C70.8561 13.987 70.8789 14.2897 70.8789 14.5957V17.4766C70.8789 17.6914 70.8887 17.877 70.9082 18.0332C70.9277 18.1895 70.9701 18.3197 71.0352 18.4238C71.1068 18.5215 71.2142 18.5964 71.3574 18.6484C71.5007 18.694 71.6927 18.7168 71.9336 18.7168V19H68.5547ZM79.209 12.8574C79.209 13.0007 79.1569 13.0983 79.0527 13.1504C78.9551 13.2025 78.8346 13.2318 78.6914 13.2383C78.5547 13.2448 78.4082 13.2415 78.252 13.2285C78.1022 13.209 77.9753 13.1992 77.8711 13.1992C78.0143 13.388 78.1152 13.6029 78.1738 13.8438C78.2389 14.0781 78.2715 14.3092 78.2715 14.5371C78.2715 14.9147 78.1966 15.2467 78.0469 15.5332C77.9036 15.8132 77.7083 16.0508 77.4609 16.2461C77.2135 16.4349 76.9303 16.5781 76.6113 16.6758C76.2923 16.7734 75.9603 16.8223 75.6152 16.8223C75.446 16.8223 75.2734 16.8125 75.0977 16.793C74.9284 16.7669 74.7591 16.7279 74.5898 16.6758C74.4596 16.7799 74.3327 16.9004 74.209 17.0371C74.0918 17.1738 74.0332 17.3268 74.0332 17.4961C74.0332 17.6458 74.1048 17.7533 74.248 17.8184C74.3978 17.8835 74.5898 17.929 74.8242 17.9551C75.0651 17.9811 75.3385 17.9941 75.6445 17.9941C75.9505 17.9941 76.263 18.0007 76.582 18.0137C76.901 18.0267 77.2135 18.056 77.5195 18.1016C77.8255 18.1471 78.0957 18.2285 78.3301 18.3457C78.571 18.4564 78.763 18.6126 78.9062 18.8145C79.056 19.0163 79.1309 19.2832 79.1309 19.6152C79.1309 19.9147 79.0723 20.1882 78.9551 20.4355C78.8379 20.6829 78.6816 20.9043 78.4863 21.0996C78.291 21.3014 78.0632 21.474 77.8027 21.6172C77.5488 21.7604 77.2819 21.8809 77.002 21.9785C76.722 22.0762 76.4388 22.1478 76.1523 22.1934C75.8724 22.2389 75.6055 22.2617 75.3516 22.2617C75.2279 22.2617 75.0651 22.2487 74.8633 22.2227C74.668 22.2031 74.4596 22.1673 74.2383 22.1152C74.0234 22.0697 73.8053 22.0078 73.584 21.9297C73.3626 21.8581 73.1641 21.7702 72.9883 21.666C72.8125 21.5618 72.6693 21.4414 72.5586 21.3047C72.4479 21.1745 72.3926 21.0247 72.3926 20.8555C72.3926 20.7188 72.4447 20.556 72.5488 20.3672C72.6595 20.1849 72.7865 20.0026 72.9297 19.8203C73.0794 19.6445 73.2292 19.4753 73.3789 19.3125C73.5352 19.1562 73.6589 19.0326 73.75 18.9414C73.6849 18.9023 73.6133 18.8535 73.5352 18.7949C73.457 18.7363 73.3822 18.6712 73.3105 18.5996C73.2389 18.528 73.1771 18.4531 73.125 18.375C73.0794 18.2904 73.0566 18.2057 73.0566 18.1211C73.0566 17.9844 73.099 17.8411 73.1836 17.6914C73.2682 17.5352 73.3724 17.3854 73.4961 17.2422C73.6198 17.099 73.7467 16.9655 73.877 16.8418C74.0137 16.7181 74.1309 16.6172 74.2285 16.5391C74.0332 16.4479 73.8542 16.3307 73.6914 16.1875C73.5352 16.0443 73.4017 15.8848 73.291 15.709C73.1803 15.5267 73.0957 15.3346 73.0371 15.1328C72.9785 14.9245 72.9492 14.7129 72.9492 14.498C72.9492 14.1204 73.0208 13.7819 73.1641 13.4824C73.3138 13.1764 73.5124 12.9193 73.7598 12.7109C74.0072 12.5026 74.2904 12.3431 74.6094 12.2324C74.9349 12.1152 75.2767 12.0566 75.6348 12.0566C75.8496 12.0566 76.0579 12.0859 76.2598 12.1445C76.4681 12.1966 76.6732 12.2552 76.875 12.3203C77.0768 12.3854 77.2786 12.4473 77.4805 12.5059C77.6823 12.5579 77.8874 12.584 78.0957 12.584C78.2259 12.584 78.3561 12.5775 78.4863 12.5645C78.6165 12.5449 78.7467 12.5352 78.877 12.5352C79.0072 12.5352 79.0951 12.5482 79.1406 12.5742C79.1862 12.6003 79.209 12.6947 79.209 12.8574ZM76.9727 14.7422C76.9727 14.5143 76.9499 14.2669 76.9043 14C76.8652 13.7266 76.7904 13.4727 76.6797 13.2383C76.569 13.0039 76.4193 12.8086 76.2305 12.6523C76.0417 12.4961 75.804 12.418 75.5176 12.418C75.2702 12.418 75.0618 12.4733 74.8926 12.584C74.7298 12.6882 74.5996 12.8249 74.502 12.9941C74.4043 13.1569 74.3327 13.3424 74.2871 13.5508C74.248 13.7591 74.2285 13.9674 74.2285 14.1758C74.2285 14.4102 74.248 14.6608 74.2871 14.9277C74.3327 15.1947 74.4108 15.4421 74.5215 15.6699C74.6387 15.8978 74.7917 16.0866 74.9805 16.2363C75.1758 16.3861 75.4199 16.4609 75.7129 16.4609C75.9668 16.4609 76.1751 16.4121 76.3379 16.3145C76.5007 16.2168 76.6276 16.0866 76.7188 15.9238C76.8164 15.7611 76.8815 15.5788 76.9141 15.377C76.9531 15.1686 76.9727 14.957 76.9727 14.7422ZM78.5938 19.8984C78.5938 19.8008 78.571 19.7161 78.5254 19.6445C78.4863 19.5729 78.431 19.5111 78.3594 19.459C78.2943 19.4134 78.2161 19.3743 78.125 19.3418C78.0404 19.3092 77.9557 19.2832 77.8711 19.2637C77.6823 19.2181 77.4251 19.1823 77.0996 19.1562C76.7741 19.1302 76.429 19.1074 76.0645 19.0879C75.7064 19.0749 75.3548 19.0618 75.0098 19.0488C74.6647 19.0358 74.3783 19.0195 74.1504 19C74.0853 19.0781 74.0104 19.166 73.9258 19.2637C73.8477 19.3678 73.7728 19.4753 73.7012 19.5859C73.6296 19.7031 73.571 19.8203 73.5254 19.9375C73.4798 20.0612 73.457 20.1816 73.457 20.2988C73.457 20.4486 73.5059 20.5788 73.6035 20.6895C73.7012 20.8001 73.8249 20.8945 73.9746 20.9727C74.1309 21.0508 74.3034 21.1159 74.4922 21.168C74.6875 21.2201 74.8796 21.2591 75.0684 21.2852C75.2572 21.3177 75.4362 21.3372 75.6055 21.3438C75.7747 21.3568 75.9115 21.3633 76.0156 21.3633C76.237 21.3633 76.4941 21.3405 76.7871 21.2949C77.0866 21.2559 77.3698 21.181 77.6367 21.0703C77.9036 20.9596 78.1283 20.8099 78.3105 20.6211C78.4993 20.4323 78.5938 20.1914 78.5938 19.8984Z" fill="white"/>
</svg>
